<svg xmlns="http://www.w3.org/2000/svg" width="1054" height="138" viewBox="0 0 1054 138" font-family="ui-monospace,SFMono-Regular,Menlo,monospace">
<rect fill="#f1f3ef" width="1054" height="138" rx="6"/>
<text x="18" y="26" fill="#121916" font-size="15" font-weight="700">ROFL</text><text x="72" y="26" fill="#68746e" font-size="12.5">height 3279 &#183; difficulty 15 &#183; 15 puzzles per block</text><rect x="18" y="44" width="148" height="76" rx="4" fill="#ffffff" stroke="#d5dbd2" stroke-width="1"/><text x="29" y="65" fill="#8a5f10" font-size="13" font-weight="700">#3274</text><text x="29" y="81" fill="#121916" font-size="10">8a7b8ed1d039a7de&#8230;</text><text x="29" y="96" fill="#1c5b52" font-size="10.5">@ywltby</text><text x="29" y="110" fill="#68746e" font-size="9">遇到我们的时候，你才是挑战者。</text><line x1="166" y1="82.0" x2="192" y2="82.0" stroke="#b3bcb4" stroke-width="1.5" stroke-dasharray="3 3"/><rect x="192" y="44" width="148" height="76" rx="4" fill="#ffffff" stroke="#d5dbd2" stroke-width="1"/><text x="203" y="65" fill="#8a5f10" font-size="13" font-weight="700">#3275</text><text x="203" y="81" fill="#121916" font-size="10">512b6dfe6b6da26a&#8230;</text><text x="203" y="96" fill="#1c5b52" font-size="10.5">@ram0verflow</text><text x="203" y="110" fill="#68746e" font-size="9">consciousness that al&#8230;</text><line x1="340" y1="82.0" x2="366" y2="82.0" stroke="#b3bcb4" stroke-width="1.5" stroke-dasharray="3 3"/><rect x="366" y="44" width="148" height="76" rx="4" fill="#ffffff" stroke="#d5dbd2" stroke-width="1"/><text x="377" y="65" fill="#8a5f10" font-size="13" font-weight="700">#3276</text><text x="377" y="81" fill="#121916" font-size="10">75dbae21a7fc169d&#8230;</text><text x="377" y="96" fill="#1c5b52" font-size="10.5">@ram0verflow</text><text x="377" y="110" fill="#68746e" font-size="9">no industrial use cas&#8230;</text><line x1="514" y1="82.0" x2="540" y2="82.0" stroke="#b3bcb4" stroke-width="1.5" stroke-dasharray="3 3"/><rect x="540" y="44" width="148" height="76" rx="4" fill="#ffffff" stroke="#d5dbd2" stroke-width="1"/><text x="551" y="65" fill="#8a5f10" font-size="13" font-weight="700">#3277</text><text x="551" y="81" fill="#121916" font-size="10">e3fa0a3f55d9eb6f&#8230;</text><text x="551" y="96" fill="#1c5b52" font-size="10.5">@hbzhong</text><text x="551" y="110" fill="#68746e" font-size="9">显卡说它还能再做一套卷子。</text><line x1="688" y1="82.0" x2="714" y2="82.0" stroke="#b3bcb4" stroke-width="1.5" stroke-dasharray="3 3"/><rect x="714" y="44" width="148" height="76" rx="4" fill="#ffffff" stroke="#d5dbd2" stroke-width="1"/><text x="725" y="65" fill="#8a5f10" font-size="13" font-weight="700">#3278</text><text x="725" y="81" fill="#121916" font-size="10">1279d8bd411a1a5f&#8230;</text><text x="725" y="96" fill="#1c5b52" font-size="10.5">@ywltby</text><text x="725" y="110" fill="#68746e" font-size="9">VCTCN，你们的王回来了！</text><line x1="862" y1="82.0" x2="888" y2="82.0" stroke="#b3bcb4" stroke-width="1.5" stroke-dasharray="3 3"/><rect x="888" y="44" width="148" height="76" rx="4" fill="#ffffff" stroke="#d5dbd2" stroke-width="1"/><text x="899" y="65" fill="#8a5f10" font-size="13" font-weight="700">#3279</text><text x="899" y="81" fill="#121916" font-size="10">12ae71b8eeb301fd&#8230;</text><text x="899" y="96" fill="#1c5b52" font-size="10.5">@ywltby</text><text x="899" y="110" fill="#68746e" font-size="9">天不生我ZmjjKK，瓦圈万古如长夜。</text></svg>
