<svg xmlns="http://www.w3.org/2000/svg" width="1054" height="138" viewBox="0 0 1054 138" font-family="ui-monospace,SFMono-Regular,Menlo,monospace">
<rect fill="#f1f3ef" width="1054" height="138" rx="6"/>
<text x="18" y="26" fill="#121916" font-size="15" font-weight="700">ROFL</text><text x="72" y="26" fill="#68746e" font-size="12.5">height 3158 &#183; difficulty 41 &#183; 41 puzzles per block</text><rect x="18" y="44" width="148" height="76" rx="4" fill="#ffffff" stroke="#d5dbd2" stroke-width="1"/><text x="29" y="65" fill="#8a5f10" font-size="13" font-weight="700">#3153</text><text x="29" y="81" fill="#121916" font-size="10">c767c8818258bea0&#8230;</text><text x="29" y="96" fill="#1c5b52" font-size="10.5">@sb-2b</text><text x="29" y="110" fill="#68746e" font-size="9">gm from Intel UHD 630</text><line x1="166" y1="82.0" x2="192" y2="82.0" stroke="#b3bcb4" stroke-width="1.5" stroke-dasharray="3 3"/><rect x="192" y="44" width="148" height="76" rx="4" fill="#ffffff" stroke="#d5dbd2" stroke-width="1"/><text x="203" y="65" fill="#8a5f10" font-size="13" font-weight="700">#3154</text><text x="203" y="81" fill="#121916" font-size="10">a797bda0100ac420&#8230;</text><text x="203" y="96" fill="#1c5b52" font-size="10.5">@ywltby</text><text x="203" y="110" fill="#68746e" font-size="9">面善打个D啊，喜欢我的战斗脸吗？</text><line x1="340" y1="82.0" x2="366" y2="82.0" stroke="#b3bcb4" stroke-width="1.5" stroke-dasharray="3 3"/><rect x="366" y="44" width="148" height="76" rx="4" fill="#ffffff" stroke="#d5dbd2" stroke-width="1"/><text x="377" y="65" fill="#8a5f10" font-size="13" font-weight="700">#3155</text><text x="377" y="81" fill="#121916" font-size="10">9d5e33ba9f75684b&#8230;</text><text x="377" y="96" fill="#1c5b52" font-size="10.5">@hbzhong</text><text x="377" y="110" fill="#68746e" font-size="9">别人的涨停，不是我的紧急任务。</text><line x1="514" y1="82.0" x2="540" y2="82.0" stroke="#b3bcb4" stroke-width="1.5" stroke-dasharray="3 3"/><rect x="540" y="44" width="148" height="76" rx="4" fill="#ffffff" stroke="#d5dbd2" stroke-width="1"/><text x="551" y="65" fill="#8a5f10" font-size="13" font-weight="700">#3156</text><text x="551" y="81" fill="#121916" font-size="10">177911138bde7b04&#8230;</text><text x="551" y="96" fill="#1c5b52" font-size="10.5">@ywltby</text><text x="551" y="110" fill="#68746e" font-size="9">遇到我们的时候，你才是挑战者。</text><line x1="688" y1="82.0" x2="714" y2="82.0" stroke="#b3bcb4" stroke-width="1.5" stroke-dasharray="3 3"/><rect x="714" y="44" width="148" height="76" rx="4" fill="#ffffff" stroke="#d5dbd2" stroke-width="1"/><text x="725" y="65" fill="#8a5f10" font-size="13" font-weight="700">#3157</text><text x="725" y="81" fill="#121916" font-size="10">19a8782712ce4dab&#8230;</text><text x="725" y="96" fill="#1c5b52" font-size="10.5">@ywltby</text><text x="725" y="110" fill="#68746e" font-size="9">VCTCN，你们的王回来了！</text><line x1="862" y1="82.0" x2="888" y2="82.0" stroke="#b3bcb4" stroke-width="1.5" stroke-dasharray="3 3"/><rect x="888" y="44" width="148" height="76" rx="4" fill="#ffffff" stroke="#d5dbd2" stroke-width="1"/><text x="899" y="65" fill="#8a5f10" font-size="13" font-weight="700">#3158</text><text x="899" y="81" fill="#121916" font-size="10">02d64426b555de1c&#8230;</text><text x="899" y="96" fill="#1c5b52" font-size="10.5">@hbzhong</text><text x="899" y="110" fill="#68746e" font-size="9">手痒先洗手，别急着点买入。</text></svg>
