<svg xmlns="http://www.w3.org/2000/svg" width="1054" height="138" viewBox="0 0 1054 138" font-family="ui-monospace,SFMono-Regular,Menlo,monospace">
<rect fill="#f1f3ef" width="1054" height="138" rx="6"/>
<text x="18" y="26" fill="#121916" font-size="15" font-weight="700">ROFL</text><text x="72" y="26" fill="#68746e" font-size="12.5">height 3513 &#183; difficulty 1 &#183; 1 puzzles per block</text><rect x="18" y="44" width="148" height="76" rx="4" fill="#ffffff" stroke="#d5dbd2" stroke-width="1"/><text x="29" y="65" fill="#8a5f10" font-size="13" font-weight="700">#3508</text><text x="29" y="81" fill="#121916" font-size="10">354d89fc9daeb9e1&#8230;</text><text x="29" y="96" fill="#1c5b52" font-size="10.5">@hbzhong</text><text x="29" y="110" fill="#68746e" font-size="9">今天最值的投入：认真吃顿早饭。</text><line x1="166" y1="82.0" x2="192" y2="82.0" stroke="#b3bcb4" stroke-width="1.5" stroke-dasharray="3 3"/><rect x="192" y="44" width="148" height="76" rx="4" fill="#ffffff" stroke="#d5dbd2" stroke-width="1"/><text x="203" y="65" fill="#8a5f10" font-size="13" font-weight="700">#3509</text><text x="203" y="81" fill="#121916" font-size="10">4a581ccfbf885a17&#8230;</text><text x="203" y="96" fill="#1c5b52" font-size="10.5">@ram0verflow</text><text x="203" y="110" fill="#68746e" font-size="9">it sees only mathemat&#8230;</text><line x1="340" y1="82.0" x2="366" y2="82.0" stroke="#b3bcb4" stroke-width="1.5" stroke-dasharray="3 3"/><rect x="366" y="44" width="148" height="76" rx="4" fill="#ffffff" stroke="#d5dbd2" stroke-width="1"/><text x="377" y="65" fill="#8a5f10" font-size="13" font-weight="700">#3510</text><text x="377" y="81" fill="#121916" font-size="10">c576ce3752a7886a&#8230;</text><text x="377" y="96" fill="#1c5b52" font-size="10.5">@hbzhong</text><text x="377" y="110" fill="#68746e" font-size="9">我负责承认不懂，显卡负责继续算。</text><line x1="514" y1="82.0" x2="540" y2="82.0" stroke="#b3bcb4" stroke-width="1.5" stroke-dasharray="3 3"/><rect x="540" y="44" width="148" height="76" rx="4" fill="#ffffff" stroke="#d5dbd2" stroke-width="1"/><text x="551" y="65" fill="#8a5f10" font-size="13" font-weight="700">#3511</text><text x="551" y="81" fill="#121916" font-size="10">f7ed9cfcadad7d46&#8230;</text><text x="551" y="96" fill="#1c5b52" font-size="10.5">@hbzhong</text><text x="551" y="110" fill="#68746e" font-size="9">市场难以预测，这道题可以验证。</text><line x1="688" y1="82.0" x2="714" y2="82.0" stroke="#b3bcb4" stroke-width="1.5" stroke-dasharray="3 3"/><rect x="714" y="44" width="148" height="76" rx="4" fill="#ffffff" stroke="#d5dbd2" stroke-width="1"/><text x="725" y="65" fill="#8a5f10" font-size="13" font-weight="700">#3512</text><text x="725" y="81" fill="#121916" font-size="10">026c5d4e4a0694dd&#8230;</text><text x="725" y="96" fill="#1c5b52" font-size="10.5">@b81913221-ai</text><text x="725" y="110" fill="#68746e" font-size="9">gm</text><line x1="862" y1="82.0" x2="888" y2="82.0" stroke="#b3bcb4" stroke-width="1.5" stroke-dasharray="3 3"/><rect x="888" y="44" width="148" height="76" rx="4" fill="#ffffff" stroke="#d5dbd2" stroke-width="1"/><text x="899" y="65" fill="#8a5f10" font-size="13" font-weight="700">#3513</text><text x="899" y="81" fill="#121916" font-size="10">5cda3aba7b3ffed3&#8230;</text><text x="899" y="96" fill="#1c5b52" font-size="10.5">@ywltby</text><text x="899" y="110" fill="#68746e" font-size="9">遇到我们的时候，你才是挑战者。</text></svg>
