<svg xmlns="http://www.w3.org/2000/svg" width="1054" height="138" viewBox="0 0 1054 138" font-family="ui-monospace,SFMono-Regular,Menlo,monospace">
<rect fill="#0c1210" width="1054" height="138" rx="6"/>
<text x="18" y="26" fill="#e5e9e3" font-size="15" font-weight="700">ROFL</text><text x="72" y="26" fill="#7a867f" font-size="12.5">height 3251 &#183; difficulty 19 &#183; 19 puzzles per block</text><rect x="18" y="44" width="148" height="76" rx="4" fill="#131b17" stroke="#28332e" stroke-width="1"/><text x="29" y="65" fill="#d9a64c" font-size="13" font-weight="700">#3246</text><text x="29" y="81" fill="#e5e9e3" font-size="10">1bb6728ee6c296f0&#8230;</text><text x="29" y="96" fill="#5cab9b" font-size="10.5">@ywltby</text><text x="29" y="110" fill="#7a867f" font-size="9">原神？启动！</text><line x1="166" y1="82.0" x2="192" y2="82.0" stroke="#38443e" stroke-width="1.5" stroke-dasharray="3 3"/><rect x="192" y="44" width="148" height="76" rx="4" fill="#131b17" stroke="#28332e" stroke-width="1"/><text x="203" y="65" fill="#d9a64c" font-size="13" font-weight="700">#3247</text><text x="203" y="81" fill="#e5e9e3" font-size="10">be54f9d285fab705&#8230;</text><text x="203" y="96" fill="#5cab9b" font-size="10.5">@Aitensa</text><text x="203" y="110" fill="#7a867f" font-size="9">gm from Aitensa</text><line x1="340" y1="82.0" x2="366" y2="82.0" stroke="#38443e" stroke-width="1.5" stroke-dasharray="3 3"/><rect x="366" y="44" width="148" height="76" rx="4" fill="#131b17" stroke="#28332e" stroke-width="1"/><text x="377" y="65" fill="#d9a64c" font-size="13" font-weight="700">#3248</text><text x="377" y="81" fill="#e5e9e3" font-size="10">72ed5de615fe290e&#8230;</text><text x="377" y="96" fill="#5cab9b" font-size="10.5">@Aitensa</text><text x="377" y="110" fill="#7a867f" font-size="9">gm from Aitensa</text><line x1="514" y1="82.0" x2="540" y2="82.0" stroke="#38443e" stroke-width="1.5" stroke-dasharray="3 3"/><rect x="540" y="44" width="148" height="76" rx="4" fill="#131b17" stroke="#28332e" stroke-width="1"/><text x="551" y="65" fill="#d9a64c" font-size="13" font-weight="700">#3249</text><text x="551" y="81" fill="#e5e9e3" font-size="10">39fe6f45ccaa6359&#8230;</text><text x="551" y="96" fill="#5cab9b" font-size="10.5">@hbzhong</text><text x="551" y="110" fill="#7a867f" font-size="9">对不起，这个谜题我先下手了。</text><line x1="688" y1="82.0" x2="714" y2="82.0" stroke="#38443e" stroke-width="1.5" stroke-dasharray="3 3"/><rect x="714" y="44" width="148" height="76" rx="4" fill="#131b17" stroke="#28332e" stroke-width="1"/><text x="725" y="65" fill="#d9a64c" font-size="13" font-weight="700">#3250</text><text x="725" y="81" fill="#e5e9e3" font-size="10">8b5e14970922beec&#8230;</text><text x="725" y="96" fill="#5cab9b" font-size="10.5">@ywltby</text><text x="725" y="110" fill="#7a867f" font-size="9">排位，比世界赛决赛还难打。</text><line x1="862" y1="82.0" x2="888" y2="82.0" stroke="#38443e" stroke-width="1.5" stroke-dasharray="3 3"/><rect x="888" y="44" width="148" height="76" rx="4" fill="#131b17" stroke="#28332e" stroke-width="1"/><text x="899" y="65" fill="#d9a64c" font-size="13" font-weight="700">#3251</text><text x="899" y="81" fill="#e5e9e3" font-size="10">d412c1c33b3eaa12&#8230;</text><text x="899" y="96" fill="#5cab9b" font-size="10.5">@hbzhong</text><text x="899" y="110" fill="#7a867f" font-size="9">我来组成区块的最后一块拼图。</text></svg>
